<svg xmlns="http://www.w3.org/2000/svg" width="186.778" height="99.86" viewBox="0 0 186.778 99.86">
  <g id="Grupo_26" data-name="Grupo 26" transform="translate(-164.222 -199.372)">
    <g id="Grupo_22" data-name="Grupo 22" transform="translate(221.07 192.454) rotate(45)">
      <g id="Grupo_24" data-name="Grupo 24">
        <path id="Exclusión_1" data-name="Exclusión 1" d="M35.306,70.611a35.567,35.567,0,0,1-7.115-.717,35.112,35.112,0,0,1-12.624-5.312A35.409,35.409,0,0,1,2.774,49.048,35.127,35.127,0,0,1,.717,42.421a35.65,35.65,0,0,1,0-14.231A35.113,35.113,0,0,1,6.03,15.566,35.408,35.408,0,0,1,21.563,2.774,35.129,35.129,0,0,1,28.19.717a35.651,35.651,0,0,1,14.231,0A35.113,35.113,0,0,1,55.046,6.03,35.408,35.408,0,0,1,67.837,21.563a35.126,35.126,0,0,1,2.057,6.627,35.65,35.65,0,0,1,0,14.231,35.113,35.113,0,0,1-5.312,12.624A35.409,35.409,0,0,1,49.048,67.837a35.13,35.13,0,0,1-6.627,2.057A35.567,35.567,0,0,1,35.306,70.611Zm0-61.253A25.826,25.826,0,0,0,20.8,13.789a26.023,26.023,0,0,0-9.4,11.416,25.914,25.914,0,0,0,2.392,24.608,26.023,26.023,0,0,0,11.416,9.4,25.914,25.914,0,0,0,24.608-2.392,26.023,26.023,0,0,0,9.4-11.416A25.914,25.914,0,0,0,56.822,20.8a26.023,26.023,0,0,0-11.416-9.4A25.786,25.786,0,0,0,35.306,9.358Z" transform="translate(0 9.784)" fill="#fff"/>
        <rect id="Rectángulo_2" data-name="Rectángulo 2" width="11.91" height="30.627" rx="5.955" transform="translate(29.351 59.977)" fill="#fff"/>
        <rect id="Rectángulo_3" data-name="Rectángulo 3" width="11.91" height="30.627" rx="5.955" transform="translate(29.351 0)" fill="#fff"/>
      </g>
    </g>
    <text id="sellu" transform="translate(268 221)" fill="#fff" font-size="40" font-family="Dosis-ExtraBold, Dosis" font-weight="800"><tspan x="0" y="41">sellu</tspan></text>
  </g>
</svg>
